<svg width="1200" height="628" viewBox="0 0 1200 628" fill="none" xmlns="http://www.w3.org/2000/svg">
<g clip-path="url(#clip0_22_2)">
<rect width="1200" height="628" fill="#F5F5F5"/>
<path d="M517.083 502.985C519.671 502.985 521.966 502.497 523.968 501.521C525.97 500.495 527.532 499.079 528.655 497.272C529.827 495.417 530.438 493.244 530.486 490.754H550.335C550.286 496.32 548.797 501.276 545.867 505.622C542.938 509.919 539.007 513.312 534.075 515.803C529.144 518.244 523.626 519.465 517.522 519.465C511.37 519.465 505.999 518.439 501.409 516.389C496.868 514.338 493.084 511.506 490.057 507.893C487.029 504.23 484.759 499.982 483.245 495.148C481.731 490.266 480.975 485.041 480.975 479.475V477.351C480.975 471.735 481.731 466.511 483.245 461.677C484.759 456.794 487.029 452.546 490.057 448.933C493.084 445.271 496.868 442.414 501.409 440.363C505.95 438.312 511.272 437.287 517.376 437.287C523.87 437.287 529.559 438.532 534.441 441.022C539.373 443.513 543.23 447.077 546.014 451.716C548.846 456.306 550.286 461.75 550.335 468.049H530.486C530.438 465.412 529.876 463.02 528.802 460.871C527.776 458.723 526.263 457.014 524.261 455.744C522.308 454.426 519.891 453.767 517.01 453.767C513.934 453.767 511.419 454.426 509.466 455.744C507.513 457.014 505.999 458.771 504.925 461.018C503.851 463.215 503.094 465.729 502.654 468.562C502.264 471.345 502.068 474.274 502.068 477.351V479.475C502.068 482.551 502.264 485.505 502.654 488.337C503.045 491.169 503.777 493.684 504.852 495.881C505.975 498.078 507.513 499.812 509.466 501.081C511.419 502.351 513.958 502.985 517.083 502.985ZM559.197 479.182V477.644C559.197 471.833 560.027 466.486 561.688 461.604C563.348 456.672 565.765 452.399 568.938 448.786C572.112 445.173 576.019 442.365 580.657 440.363C585.296 438.312 590.618 437.287 596.624 437.287C602.63 437.287 607.977 438.312 612.664 440.363C617.352 442.365 621.282 445.173 624.456 448.786C627.679 452.399 630.12 456.672 631.78 461.604C633.44 466.486 634.271 471.833 634.271 477.644V479.182C634.271 484.943 633.44 490.29 631.78 495.222C630.12 500.104 627.679 504.377 624.456 508.039C621.282 511.652 617.376 514.46 612.737 516.462C608.099 518.464 602.776 519.465 596.771 519.465C590.765 519.465 585.418 518.464 580.73 516.462C576.092 514.46 572.161 511.652 568.938 508.039C565.765 504.377 563.348 500.104 561.688 495.222C560.027 490.29 559.197 484.943 559.197 479.182ZM580.291 477.644V479.182C580.291 482.502 580.584 485.603 581.17 488.483C581.756 491.364 582.684 493.903 583.953 496.101C585.271 498.249 586.98 499.934 589.08 501.154C591.18 502.375 593.743 502.985 596.771 502.985C599.7 502.985 602.215 502.375 604.314 501.154C606.414 499.934 608.099 498.249 609.368 496.101C610.638 493.903 611.565 491.364 612.151 488.483C612.786 485.603 613.104 482.502 613.104 479.182V477.644C613.104 474.421 612.786 471.394 612.151 468.562C611.565 465.681 610.613 463.142 609.295 460.944C608.025 458.698 606.341 456.94 604.241 455.671C602.142 454.401 599.603 453.767 596.624 453.767C593.646 453.767 591.106 454.401 589.007 455.671C586.956 456.94 585.271 458.698 583.953 460.944C582.684 463.142 581.756 465.681 581.17 468.562C580.584 471.394 580.291 474.421 580.291 477.644ZM673.016 502.619L690.594 438.752H712.64L685.906 518H672.576L673.016 502.619ZM660.931 438.752L678.582 502.692L678.948 518H665.545L638.812 438.752H660.931ZM757.537 519.465C751.385 519.465 745.867 518.488 740.984 516.535C736.102 514.533 731.951 511.774 728.533 508.259C725.164 504.743 722.576 500.666 720.77 496.027C718.963 491.34 718.06 486.359 718.06 481.086V478.156C718.06 472.15 718.914 466.657 720.623 461.677C722.332 456.696 724.773 452.375 727.947 448.713C731.17 445.051 735.076 442.243 739.666 440.29C744.256 438.288 749.432 437.287 755.193 437.287C760.809 437.287 765.789 438.215 770.135 440.07C774.48 441.926 778.118 444.562 781.048 447.98C784.026 451.398 786.272 455.5 787.786 460.285C789.3 465.021 790.057 470.295 790.057 476.105V484.895H727.068V470.832H769.329V469.221C769.329 466.291 768.792 463.679 767.718 461.384C766.692 459.04 765.13 457.185 763.03 455.817C760.931 454.45 758.245 453.767 754.974 453.767C752.19 453.767 749.798 454.377 747.796 455.598C745.794 456.818 744.158 458.527 742.889 460.725C741.668 462.922 740.74 465.51 740.105 468.488C739.52 471.418 739.227 474.641 739.227 478.156V481.086C739.227 484.26 739.666 487.189 740.545 489.875C741.473 492.561 742.767 494.88 744.427 496.833C746.136 498.786 748.187 500.3 750.579 501.374C753.021 502.448 755.779 502.985 758.855 502.985C762.664 502.985 766.204 502.253 769.476 500.788C772.796 499.274 775.652 497.004 778.045 493.977L788.299 505.109C786.639 507.502 784.368 509.797 781.487 511.994C778.655 514.191 775.237 515.998 771.233 517.414C767.229 518.781 762.664 519.465 757.537 519.465ZM823.162 456.037V518H802.068V438.752H821.917L823.162 456.037ZM847.039 438.239L846.673 457.795C845.647 457.648 844.402 457.526 842.938 457.429C841.521 457.282 840.228 457.209 839.056 457.209C836.077 457.209 833.489 457.6 831.292 458.381C829.144 459.113 827.337 460.212 825.872 461.677C824.456 463.142 823.382 464.924 822.649 467.023C821.966 469.123 821.575 471.516 821.478 474.201L817.229 472.883C817.229 467.756 817.742 463.044 818.768 458.747C819.793 454.401 821.282 450.617 823.235 447.395C825.237 444.172 827.679 441.682 830.56 439.924C833.44 438.166 836.736 437.287 840.447 437.287C841.619 437.287 842.815 437.385 844.036 437.58C845.257 437.727 846.258 437.946 847.039 438.239ZM892.01 519.465C885.857 519.465 880.34 518.488 875.457 516.535C870.574 514.533 866.424 511.774 863.006 508.259C859.637 504.743 857.049 500.666 855.242 496.027C853.436 491.34 852.532 486.359 852.532 481.086V478.156C852.532 472.15 853.387 466.657 855.096 461.677C856.805 456.696 859.246 452.375 862.42 448.713C865.643 445.051 869.549 442.243 874.139 440.29C878.729 438.288 883.904 437.287 889.666 437.287C895.281 437.287 900.262 438.215 904.607 440.07C908.953 441.926 912.591 444.562 915.521 447.98C918.499 451.398 920.745 455.5 922.259 460.285C923.772 465.021 924.529 470.295 924.529 476.105V484.895H861.541V470.832H903.802V469.221C903.802 466.291 903.265 463.679 902.19 461.384C901.165 459.04 899.603 457.185 897.503 455.817C895.403 454.45 892.718 453.767 889.446 453.767C886.663 453.767 884.271 454.377 882.269 455.598C880.267 456.818 878.631 458.527 877.361 460.725C876.141 462.922 875.213 465.51 874.578 468.488C873.992 471.418 873.699 474.641 873.699 478.156V481.086C873.699 484.26 874.139 487.189 875.018 489.875C875.945 492.561 877.239 494.88 878.899 496.833C880.608 498.786 882.659 500.3 885.052 501.374C887.493 502.448 890.252 502.985 893.328 502.985C897.137 502.985 900.677 502.253 903.948 500.788C907.269 499.274 910.125 497.004 912.518 493.977L922.771 505.109C921.111 507.502 918.841 509.797 915.96 511.994C913.128 514.191 909.71 515.998 905.706 517.414C901.702 518.781 897.137 519.465 892.01 519.465ZM983.343 500.715V405.5H1004.58V518H985.467L983.343 500.715ZM933.245 479.328V477.79C933.245 471.735 933.929 466.242 935.296 461.311C936.663 456.33 938.665 452.058 941.302 448.493C943.938 444.929 947.186 442.17 951.043 440.217C954.9 438.264 959.295 437.287 964.227 437.287C968.865 437.287 972.918 438.264 976.385 440.217C979.9 442.17 982.879 444.953 985.32 448.566C987.811 452.131 989.812 456.354 991.326 461.237C992.84 466.071 993.938 471.369 994.622 477.131V480.5C993.938 486.018 992.84 491.145 991.326 495.881C989.812 500.617 987.811 504.768 985.32 508.332C982.879 511.848 979.9 514.582 976.385 516.535C972.869 518.488 968.768 519.465 964.08 519.465C959.148 519.465 954.754 518.464 950.896 516.462C947.088 514.46 943.865 511.652 941.229 508.039C938.641 504.426 936.663 500.178 935.296 495.295C933.929 490.412 933.245 485.09 933.245 479.328ZM954.339 477.79V479.328C954.339 482.6 954.583 485.651 955.071 488.483C955.608 491.315 956.463 493.83 957.635 496.027C958.855 498.176 960.418 499.86 962.322 501.081C964.275 502.253 966.644 502.839 969.427 502.839C973.04 502.839 976.019 502.033 978.362 500.422C980.706 498.762 982.488 496.491 983.709 493.61C984.979 490.729 985.711 487.409 985.906 483.649V474.055C985.76 470.979 985.32 468.22 984.588 465.778C983.904 463.288 982.879 461.164 981.512 459.406C980.193 457.648 978.533 456.281 976.531 455.305C974.578 454.328 972.259 453.84 969.573 453.84C966.839 453.84 964.495 454.475 962.542 455.744C960.589 456.965 959.002 458.649 957.781 460.798C956.609 462.946 955.73 465.485 955.145 468.415C954.607 471.296 954.339 474.421 954.339 477.79Z" fill="#373E44"/>
<path d="M441.476 507.819C441.476 504.694 442.55 502.082 444.698 499.982C446.896 497.883 449.801 496.833 453.414 496.833C457.027 496.833 459.908 497.883 462.057 499.982C464.254 502.082 465.353 504.694 465.353 507.819C465.353 510.944 464.254 513.557 462.057 515.656C459.908 517.756 457.027 518.806 453.414 518.806C449.801 518.806 446.896 517.756 444.698 515.656C442.55 513.557 441.476 510.944 441.476 507.819Z" fill="#CC1016"/>
<path d="M239.334 438.752L236.697 453.693H191.8L194.437 438.752H239.334ZM208.938 419.196H229.52L216.629 494.27C216.434 495.979 216.434 497.443 216.629 498.664C216.873 499.836 217.435 500.739 218.313 501.374C219.192 502.009 220.56 502.375 222.415 502.473C223.44 502.521 224.466 502.497 225.491 502.399C226.517 502.253 227.566 502.106 228.641 501.96L227.176 517.707C225.223 518.293 223.245 518.708 221.243 518.952C219.29 519.245 217.288 519.392 215.237 519.392C210.55 519.294 206.692 518.269 203.665 516.315C200.687 514.362 198.538 511.677 197.22 508.259C195.95 504.792 195.535 500.788 195.975 496.247L208.938 419.196ZM276.614 405.5L257.059 518H236.478L256.033 405.5H276.614ZM261.673 475.593L256.326 475.666C256.863 471.174 257.913 466.633 259.476 462.043C261.087 457.453 263.26 453.278 265.994 449.519C268.729 445.71 272.073 442.683 276.028 440.437C280.032 438.142 284.671 437.067 289.944 437.214C294.388 437.312 298.074 438.215 301.004 439.924C303.982 441.584 306.302 443.854 307.962 446.735C309.622 449.567 310.721 452.814 311.258 456.477C311.795 460.09 311.844 463.898 311.404 467.902L303.055 518H282.327L290.823 467.683C291.116 465.095 291.043 462.775 290.604 460.725C290.213 458.625 289.261 456.965 287.747 455.744C286.282 454.475 284.109 453.815 281.229 453.767C278.055 453.669 275.32 454.23 273.025 455.451C270.779 456.672 268.875 458.356 267.312 460.505C265.75 462.604 264.529 464.973 263.65 467.609C262.771 470.197 262.112 472.858 261.673 475.593ZM353.885 438.752L340.188 518H319.534L333.304 438.752H353.885ZM335.574 418.464C335.477 415.144 336.551 412.482 338.797 410.48C341.092 408.479 343.851 407.453 347.073 407.404C350.149 407.355 352.835 408.283 355.13 410.188C357.425 412.043 358.572 414.558 358.572 417.731C358.67 421.052 357.571 423.713 355.276 425.715C352.981 427.717 350.247 428.742 347.073 428.791C343.997 428.84 341.312 427.937 339.017 426.081C336.771 424.226 335.623 421.687 335.574 418.464ZM402.884 495.661C403.274 493.317 402.688 491.511 401.126 490.241C399.563 488.923 397.635 487.922 395.34 487.238C393.094 486.555 391.141 486.018 389.48 485.627C386.551 484.846 383.597 483.869 380.618 482.697C377.688 481.477 375.027 479.963 372.635 478.156C370.242 476.35 368.338 474.152 366.922 471.564C365.506 468.928 364.871 465.827 365.018 462.263C365.164 458.015 366.238 454.328 368.24 451.203C370.291 448.029 372.928 445.417 376.15 443.366C379.373 441.267 382.889 439.704 386.697 438.679C390.506 437.653 394.29 437.189 398.05 437.287C403.323 437.336 408.206 438.312 412.698 440.217C417.239 442.121 420.901 444.953 423.685 448.713C426.517 452.473 427.933 457.16 427.933 462.775L407.498 462.702C407.547 460.554 407.205 458.674 406.473 457.062C405.74 455.451 404.617 454.206 403.104 453.327C401.59 452.448 399.661 452.009 397.317 452.009C395.462 452.009 393.606 452.375 391.751 453.107C389.944 453.791 388.382 454.816 387.063 456.184C385.745 457.551 384.915 459.235 384.573 461.237C384.28 462.897 384.524 464.265 385.306 465.339C386.087 466.413 387.137 467.292 388.455 467.976C389.773 468.61 391.165 469.147 392.63 469.587C394.095 469.978 395.413 470.295 396.585 470.539C400.882 471.662 405.081 473.103 409.183 474.86C413.284 476.618 416.629 479.084 419.217 482.258C421.805 485.383 423.001 489.558 422.806 494.782C422.659 499.226 421.487 503.034 419.29 506.208C417.093 509.333 414.261 511.896 410.794 513.898C407.376 515.852 403.665 517.268 399.661 518.146C395.706 519.074 391.824 519.514 388.016 519.465C382.693 519.367 377.688 518.293 373.001 516.242C368.362 514.191 364.603 511.213 361.722 507.307C358.841 503.352 357.376 498.518 357.327 492.805L376.663 492.878C376.712 495.417 377.225 497.565 378.201 499.323C379.178 501.081 380.569 502.424 382.376 503.352C384.231 504.23 386.429 504.67 388.968 504.67C390.97 504.719 392.947 504.45 394.9 503.864C396.902 503.278 398.636 502.326 400.101 501.008C401.565 499.641 402.493 497.858 402.884 495.661Z" fill="#0A66C2"/>
<ellipse cx="600" cy="201" rx="960" ry="427" fill="url(#paint0_radial_22_2)" fill-opacity="0.8"/>
<g clip-path="url(#clip1_22_2)">
<path d="M0 0H1584V328H0V0Z" fill="#D9E5E7"/>
<path d="M1090.43 0H1584V328H1090.43V0Z" fill="#BFD3D6"/>
<path d="M956.197 0H0V328H956.197C1001.28 221.855 1001.28 106.145 956.197 0Z" fill="#A0B4B7"/>
</g>
<g filter="url(#filter0_d_22_2)">
<rect x="487" y="93" width="460" height="137" rx="68.5" fill="#E2EEF0" fill-opacity="0.83" shape-rendering="crispEdges"/>
<rect x="490.5" y="96.5" width="453" height="130" rx="65" stroke="white" stroke-width="7" shape-rendering="crispEdges"/>
</g>
<path d="M552.085 132.68L563.218 156.996L574.351 132.68H586.326L568.784 166.591V186H557.651V166.591L540.073 132.68H552.085ZM586.436 166.591V165.822C586.436 162.917 586.851 160.243 587.681 157.802C588.511 155.336 589.719 153.2 591.306 151.393C592.893 149.586 594.846 148.183 597.166 147.182C599.485 146.156 602.146 145.644 605.149 145.644C608.152 145.644 610.825 146.156 613.169 147.182C615.513 148.183 617.478 149.586 619.065 151.393C620.676 153.2 621.897 155.336 622.727 157.802C623.557 160.243 623.972 162.917 623.972 165.822V166.591C623.972 169.472 623.557 172.145 622.727 174.611C621.897 177.052 620.676 179.188 619.065 181.02C617.478 182.826 615.525 184.23 613.206 185.231C610.886 186.232 608.225 186.732 605.222 186.732C602.219 186.732 599.546 186.232 597.202 185.231C594.883 184.23 592.917 182.826 591.306 181.02C589.719 179.188 588.511 177.052 587.681 174.611C586.851 172.145 586.436 169.472 586.436 166.591ZM596.982 165.822V166.591C596.982 168.251 597.129 169.801 597.422 171.242C597.715 172.682 598.179 173.952 598.813 175.05C599.473 176.125 600.327 176.967 601.377 177.577C602.427 178.188 603.708 178.493 605.222 178.493C606.687 178.493 607.944 178.188 608.994 177.577C610.044 176.967 610.886 176.125 611.521 175.05C612.156 173.952 612.62 172.682 612.913 171.242C613.23 169.801 613.389 168.251 613.389 166.591V165.822C613.389 164.21 613.23 162.697 612.913 161.281C612.62 159.84 612.144 158.571 611.484 157.472C610.85 156.349 610.007 155.47 608.958 154.835C607.908 154.201 606.638 153.883 605.149 153.883C603.66 153.883 602.39 154.201 601.34 154.835C600.315 155.47 599.473 156.349 598.813 157.472C598.179 158.571 597.715 159.84 597.422 161.281C597.129 162.697 596.982 164.21 596.982 165.822ZM653.892 176.515V146.376H664.438V186H654.514L653.892 176.515ZM655.063 168.385L658.176 168.312C658.176 170.949 657.871 173.402 657.261 175.673C656.65 177.919 655.735 179.872 654.514 181.532C653.293 183.168 651.755 184.45 649.9 185.377C648.044 186.281 645.859 186.732 643.345 186.732C641.416 186.732 639.634 186.464 637.998 185.927C636.387 185.365 634.995 184.499 633.823 183.327C632.676 182.13 631.772 180.604 631.113 178.749C630.479 176.869 630.161 174.611 630.161 171.974V146.376H640.708V172.047C640.708 173.219 640.842 174.208 641.111 175.014C641.404 175.819 641.807 176.479 642.319 176.991C642.832 177.504 643.43 177.87 644.114 178.09C644.822 178.31 645.603 178.419 646.458 178.419C648.63 178.419 650.339 177.98 651.584 177.101C652.854 176.222 653.745 175.026 654.258 173.512C654.795 171.974 655.063 170.265 655.063 168.385ZM682.126 129.75V135.316C682.126 136.903 681.821 138.539 681.211 140.224C680.625 141.908 679.832 143.507 678.831 145.021C677.83 146.51 676.731 147.78 675.535 148.83L670.591 145.973C671.494 144.533 672.263 142.97 672.898 141.286C673.533 139.577 673.85 137.599 673.85 135.353V129.75H682.126ZM703.184 178.31L711.973 146.376H722.996L709.629 186H702.964L703.184 178.31ZM697.141 146.376L705.967 178.346L706.15 186H699.448L686.082 146.376H697.141ZM745.444 186.732C742.368 186.732 739.609 186.244 737.168 185.268C734.727 184.267 732.651 182.887 730.942 181.129C729.258 179.372 727.964 177.333 727.061 175.014C726.157 172.67 725.706 170.18 725.706 167.543V166.078C725.706 163.075 726.133 160.329 726.987 157.838C727.842 155.348 729.062 153.188 730.649 151.356C732.261 149.525 734.214 148.122 736.509 147.145C738.804 146.144 741.392 145.644 744.272 145.644C747.08 145.644 749.57 146.107 751.743 147.035C753.916 147.963 755.735 149.281 757.2 150.99C758.689 152.699 759.812 154.75 760.569 157.143C761.326 159.511 761.704 162.147 761.704 165.053V169.447H730.21V162.416H751.34V161.61C751.34 160.146 751.072 158.839 750.535 157.692C750.022 156.52 749.241 155.592 748.191 154.909C747.141 154.225 745.798 153.883 744.163 153.883C742.771 153.883 741.575 154.188 740.574 154.799C739.573 155.409 738.755 156.264 738.12 157.362C737.51 158.461 737.046 159.755 736.729 161.244C736.436 162.709 736.289 164.32 736.289 166.078V167.543C736.289 169.13 736.509 170.595 736.948 171.938C737.412 173.28 738.059 174.44 738.889 175.417C739.744 176.393 740.769 177.15 741.965 177.687C743.186 178.224 744.565 178.493 746.104 178.493C748.008 178.493 749.778 178.126 751.414 177.394C753.074 176.637 754.502 175.502 755.698 173.988L760.825 179.555C759.995 180.751 758.86 181.898 757.419 182.997C756.003 184.096 754.294 184.999 752.292 185.707C750.291 186.391 748.008 186.732 745.444 186.732ZM811.472 146.376H821.03V184.682C821.03 188.295 820.225 191.359 818.613 193.874C817.026 196.413 814.805 198.329 811.948 199.623C809.092 200.941 805.771 201.601 801.987 201.601C800.327 201.601 798.569 201.381 796.714 200.941C794.883 200.502 793.125 199.818 791.44 198.891C789.78 197.963 788.389 196.791 787.266 195.375L791.917 189.149C793.137 190.565 794.553 191.664 796.165 192.445C797.776 193.251 799.558 193.654 801.511 193.654C803.416 193.654 805.027 193.3 806.345 192.592C807.664 191.908 808.677 190.895 809.385 189.552C810.093 188.234 810.447 186.635 810.447 184.755V155.531L811.472 146.376ZM784.812 166.664V165.895C784.812 162.868 785.178 160.121 785.911 157.655C786.667 155.165 787.729 153.029 789.097 151.247C790.488 149.464 792.173 148.085 794.15 147.108C796.128 146.132 798.362 145.644 800.852 145.644C803.489 145.644 805.698 146.132 807.48 147.108C809.263 148.085 810.728 149.477 811.875 151.283C813.022 153.065 813.914 155.177 814.548 157.619C815.208 160.036 815.72 162.685 816.086 165.565V167.25C815.72 170.009 815.171 172.572 814.438 174.94C813.706 177.309 812.742 179.384 811.545 181.166C810.349 182.924 808.86 184.291 807.078 185.268C805.32 186.244 803.22 186.732 800.779 186.732C798.337 186.732 796.128 186.232 794.15 185.231C792.197 184.23 790.525 182.826 789.133 181.02C787.742 179.213 786.667 177.089 785.911 174.647C785.178 172.206 784.812 169.545 784.812 166.664ZM795.359 165.895V166.664C795.359 168.3 795.518 169.826 795.835 171.242C796.152 172.658 796.641 173.915 797.3 175.014C797.983 176.088 798.826 176.93 799.827 177.541C800.852 178.126 802.061 178.419 803.452 178.419C805.381 178.419 806.956 178.017 808.176 177.211C809.397 176.381 810.312 175.246 810.923 173.805C811.533 172.365 811.887 170.705 811.985 168.825V164.027C811.936 162.489 811.729 161.11 811.362 159.889C810.996 158.644 810.483 157.582 809.824 156.703C809.165 155.824 808.311 155.141 807.261 154.652C806.211 154.164 804.966 153.92 803.525 153.92C802.134 153.92 800.925 154.237 799.9 154.872C798.899 155.482 798.057 156.325 797.373 157.399C796.714 158.473 796.213 159.743 795.872 161.208C795.53 162.648 795.359 164.21 795.359 165.895ZM827.549 166.591V165.822C827.549 162.917 827.964 160.243 828.794 157.802C829.624 155.336 830.833 153.2 832.419 151.393C834.006 149.586 835.959 148.183 838.279 147.182C840.598 146.156 843.259 145.644 846.262 145.644C849.265 145.644 851.938 146.156 854.282 147.182C856.626 148.183 858.591 149.586 860.178 151.393C861.79 153.2 863.01 155.336 863.84 157.802C864.67 160.243 865.085 162.917 865.085 165.822V166.591C865.085 169.472 864.67 172.145 863.84 174.611C863.01 177.052 861.79 179.188 860.178 181.02C858.591 182.826 856.638 184.23 854.319 185.231C852 186.232 849.338 186.732 846.335 186.732C843.333 186.732 840.659 186.232 838.315 185.231C835.996 184.23 834.031 182.826 832.419 181.02C830.833 179.188 829.624 177.052 828.794 174.611C827.964 172.145 827.549 169.472 827.549 166.591ZM838.096 165.822V166.591C838.096 168.251 838.242 169.801 838.535 171.242C838.828 172.682 839.292 173.952 839.927 175.05C840.586 176.125 841.44 176.967 842.49 177.577C843.54 178.188 844.822 178.493 846.335 178.493C847.8 178.493 849.058 178.188 850.107 177.577C851.157 176.967 852 176.125 852.634 175.05C853.269 173.952 853.733 172.682 854.026 171.242C854.343 169.801 854.502 168.251 854.502 166.591V165.822C854.502 164.21 854.343 162.697 854.026 161.281C853.733 159.84 853.257 158.571 852.598 157.472C851.963 156.349 851.121 155.47 850.071 154.835C849.021 154.201 847.751 153.883 846.262 153.883C844.773 153.883 843.503 154.201 842.454 154.835C841.428 155.47 840.586 156.349 839.927 157.472C839.292 158.571 838.828 159.84 838.535 161.281C838.242 162.697 838.096 164.21 838.096 165.822ZM890.977 146.376V153.847H867.905V146.376H890.977ZM873.618 136.598H884.165V174.062C884.165 175.209 884.312 176.088 884.604 176.698C884.922 177.309 885.386 177.736 885.996 177.98C886.606 178.2 887.375 178.31 888.303 178.31C888.962 178.31 889.548 178.285 890.061 178.236C890.598 178.163 891.05 178.09 891.416 178.017L891.453 185.78C890.549 186.073 889.573 186.305 888.523 186.476C887.473 186.647 886.313 186.732 885.044 186.732C882.725 186.732 880.698 186.354 878.965 185.597C877.256 184.816 875.938 183.571 875.01 181.862C874.082 180.153 873.618 177.907 873.618 175.124V136.598Z" fill="#56687A"/>
<g filter="url(#filter1_d_22_2)">
<g clip-path="url(#clip2_22_2)">
<path d="M253 56H464V267H253V56Z" fill="#E7E2DC"/>
<path d="M398.738 195.573C405.246 187.896 409.421 178.518 410.772 168.546C412.124 158.573 410.594 148.422 406.363 139.291C402.133 130.159 395.379 122.429 386.898 117.011C378.417 111.593 368.564 108.714 358.5 108.714C348.436 108.714 338.583 111.593 330.102 117.011C321.621 122.429 314.867 130.159 310.637 139.291C306.406 148.422 304.876 158.573 306.228 168.546C307.579 178.518 311.754 187.896 318.262 195.573C344.105 185.309 372.895 185.309 398.738 195.573Z" fill="#788FA5"/>
<path d="M398.738 195.573C393.786 201.415 387.622 206.108 380.673 209.328C373.724 212.547 366.158 214.214 358.5 214.214C350.842 214.214 343.276 212.547 336.327 209.328C329.378 206.108 323.214 201.415 318.262 195.573C302.663 201.723 288.675 211.355 277.365 223.734C266.054 236.112 257.721 250.911 253 267H464C459.279 250.911 450.946 236.112 439.635 223.734C428.325 211.355 414.337 201.723 398.738 195.573Z" fill="#9DB3C8"/>
<path d="M358.5 214.25C366.162 214.253 373.733 212.584 380.683 209.358C387.633 206.132 393.795 201.428 398.738 195.573C372.895 185.309 344.105 185.309 318.262 195.573C323.205 201.428 329.367 206.132 336.317 209.358C343.267 212.584 350.838 214.253 358.5 214.25Z" fill="#56687A"/>
</g>
<rect x="249.5" y="52.5" width="218" height="218" rx="109" stroke="#F5F5F5" stroke-width="7" shape-rendering="crispEdges"/>
</g>
<circle cx="437.5" cy="82.5" r="29.5" fill="#CC1016" stroke="#A0B4B7" stroke-width="6"/>
</g>
<defs>
<filter id="filter0_d_22_2" x="483" y="93" width="468" height="145" filterUnits="userSpaceOnUse" color-interpolation-filters="sRGB">
<feFlood flood-opacity="0" result="BackgroundImageFix"/>
<feColorMatrix in="SourceAlpha" type="matrix" values="0 0 0 0 0 0 0 0 0 0 0 0 0 0 0 0 0 0 127 0" result="hardAlpha"/>
<feOffset dy="4"/>
<feGaussianBlur stdDeviation="2"/>
<feComposite in2="hardAlpha" operator="out"/>
<feColorMatrix type="matrix" values="0 0 0 0 0 0 0 0 0 0 0 0 0 0 0 0 0 0 0.07 0"/>
<feBlend mode="normal" in2="BackgroundImageFix" result="effect1_dropShadow_22_2"/>
<feBlend mode="normal" in="SourceGraphic" in2="effect1_dropShadow_22_2" result="shape"/>
</filter>
<filter id="filter1_d_22_2" x="240" y="43" width="237" height="237" filterUnits="userSpaceOnUse" color-interpolation-filters="sRGB">
<feFlood flood-opacity="0" result="BackgroundImageFix"/>
<feColorMatrix in="SourceAlpha" type="matrix" values="0 0 0 0 0 0 0 0 0 0 0 0 0 0 0 0 0 0 127 0" result="hardAlpha"/>
<feOffset/>
<feGaussianBlur stdDeviation="3"/>
<feComposite in2="hardAlpha" operator="out"/>
<feColorMatrix type="matrix" values="0 0 0 0 0 0 0 0 0 0 0 0 0 0 0 0 0 0 0.25 0"/>
<feBlend mode="normal" in2="BackgroundImageFix" result="effect1_dropShadow_22_2"/>
<feBlend mode="normal" in="SourceGraphic" in2="effect1_dropShadow_22_2" result="shape"/>
</filter>
<radialGradient id="paint0_radial_22_2" cx="0" cy="0" r="1" gradientUnits="userSpaceOnUse" gradientTransform="translate(600 201) rotate(90) scale(398.138 895.111)">
<stop stop-color="#8F8F8F" stop-opacity="0.74"/>
<stop offset="1" stop-color="#D9D9D9" stop-opacity="0"/>
</radialGradient>
<clipPath id="clip0_22_2">
<rect width="1200" height="628" fill="white"/>
</clipPath>
<clipPath id="clip1_22_2">
<rect width="1584" height="328" fill="white"/>
</clipPath>
<clipPath id="clip2_22_2">
<rect x="253" y="56" width="211" height="211" rx="105.5" fill="white"/>
</clipPath>
</defs>
</svg>
