<svg width="512" height="512" viewBox="0 0 512 512" fill="none" xmlns="http://www.w3.org/2000/svg">
<rect x="17" y="14" width="477" height="477" rx="55" fill="#0A66C2"/>
<path d="M195.747 174V211.5H64.6531V174H195.747ZM99.8094 116.5H146.528V343.531C146.528 352.594 147.882 359.417 150.591 364C153.299 368.479 156.789 371.552 161.059 373.219C165.434 374.781 170.174 375.562 175.278 375.562C179.028 375.562 182.309 375.302 185.122 374.781C187.934 374.26 190.122 373.844 191.684 373.531L200.122 412.125C197.414 413.167 193.559 414.208 188.559 415.25C183.559 416.396 177.309 417.021 169.809 417.125C157.518 417.333 146.059 415.146 135.434 410.562C124.809 405.979 116.216 398.896 109.653 389.312C103.091 379.729 99.8094 367.698 99.8094 353.219V116.5ZM341.542 418.844C318.313 418.844 298.313 413.583 281.542 403.062C264.876 392.437 252.063 377.802 243.105 359.156C234.146 340.51 229.667 319.156 229.667 295.094C229.667 270.719 234.251 249.208 243.417 230.562C252.584 211.812 265.501 197.177 282.167 186.656C298.834 176.135 318.469 170.875 341.073 170.875C359.303 170.875 375.553 174.26 389.823 181.031C404.094 187.698 415.605 197.073 424.355 209.156C433.209 221.24 438.469 235.354 440.136 251.5H394.667C392.167 240.25 386.438 230.562 377.48 222.437C368.626 214.312 356.751 210.25 341.855 210.25C328.834 210.25 317.428 213.687 307.636 220.562C297.948 227.333 290.396 237.021 284.98 249.625C279.563 262.125 276.855 276.917 276.855 294C276.855 311.5 279.511 326.604 284.823 339.312C290.136 352.021 297.636 361.865 307.323 368.844C317.115 375.823 328.626 379.313 341.855 379.313C350.709 379.313 358.73 377.698 365.917 374.469C373.209 371.135 379.303 366.396 384.198 360.25C389.198 354.104 392.688 346.708 394.667 338.062H440.136C438.469 353.583 433.417 367.437 424.98 379.625C416.542 391.812 405.24 401.396 391.073 408.375C377.011 415.354 360.501 418.844 341.542 418.844Z" fill="white"/>
</svg>
